<?xml version="1.0" standalone="no"?>
<!DOCTYPE svg PUBLIC "-//W3C//DTD SVG 20010904//EN"
 "http://www.w3.org/TR/2001/REC-SVG-20010904/DTD/svg10.dtd">
<svg version="1.0" xmlns="http://www.w3.org/2000/svg"
 width="1726.000000pt" height="492.000000pt" viewBox="0 0 1726.000000 492.000000"
 preserveAspectRatio="xMidYMid meet">

<g transform="translate(0.000000,492.000000) scale(0.100000,-0.100000)"
fill="#000000" stroke="none">
<path d="M1736 4913 c-4 -4 -152 -89 -329 -189 l-321 -181 -193 -549 c-240
-685 -313 -897 -313 -907 0 -8 72 36 303 186 81 53 161 99 177 102 25 5 42 -1
97 -38 38 -24 116 -70 175 -101 59 -31 110 -60 112 -65 3 -4 -6 -19 -19 -31
-27 -25 -34 -77 -13 -98 9 -9 6 -18 -15 -40 -27 -28 -28 -34 -34 -167 l-6
-139 -36 -39 c-20 -22 -60 -58 -89 -79 -49 -36 -53 -42 -50 -76 2 -30 -1 -37
-17 -40 -48 -10 -54 -37 -24 -109 12 -29 11 -36 -9 -71 -12 -22 -22 -48 -22
-59 0 -32 29 -62 73 -74 63 -18 65 -22 54 -78 -15 -68 2 -104 62 -133 42 -21
61 -23 226 -25 l180 -3 0 -82 c0 -74 -4 -89 -29 -132 -16 -28 -90 -111 -165
-187 -156 -157 -164 -161 -350 -179 -246 -23 -584 -133 -746 -242 -57 -38 -58
-40 -261 -338 l-153 -225 79 -79 79 -79 98 58 c54 32 109 65 122 74 l24 15 -8
-94 c-4 -52 -8 -106 -9 -119 -1 -23 8 -27 119 -63 66 -21 127 -38 135 -37 8 0
81 102 165 231 176 271 224 321 233 244 3 -20 -31 -85 -138 -262 -78 -130
-140 -236 -138 -238 1 -1 59 -17 128 -36 69 -18 132 -35 140 -37 11 -3 23 12
39 51 25 62 45 73 107 63 50 -8 64 -23 64 -69 0 -28 7 -46 23 -62 21 -21 37
-25 130 -31 59 -4 110 -7 114 -6 5 0 10 133 13 293 l5 293 98 3 c120 3 132 -8
69 -69 -57 -54 -77 -122 -77 -259 0 -122 17 -172 79 -232 65 -63 85 -68 298
-75 186 -6 195 -5 246 17 79 34 123 95 137 194 4 24 4 63 0 85 l-7 41 -189 0
-189 0 0 -35 0 -35 65 0 c72 0 78 -7 50 -60 -22 -42 -63 -70 -103 -70 -43 0
-96 51 -112 108 -28 102 7 224 74 256 19 9 39 16 46 16 25 0 68 -31 93 -67
l26 -38 116 3 115 3 0 62 c0 54 -4 67 -30 98 -16 20 -26 39 -23 43 13 12 131
6 145 -8 9 -8 25 -110 47 -295 l34 -282 51 5 c313 34 474 59 583 91 l51 15
-19 53 c-11 28 -22 57 -24 64 -3 8 -35 3 -112 -18 -163 -44 -243 -37 -243 21
0 20 20 44 48 59 9 5 69 21 133 36 64 15 122 31 129 35 10 6 9 17 -5 53 l-17
45 -67 -18 c-36 -11 -88 -26 -116 -34 -58 -18 -141 -21 -150 -5 -13 20 5 56
37 72 18 9 90 31 159 48 l126 31 -9 37 c-5 20 -11 52 -15 72 l-5 36 47 6 c91
13 89 14 103 -58 16 -85 46 -147 88 -185 53 -46 102 -42 236 20 102 48 109 50
131 35 13 -8 32 -31 42 -49 23 -43 11 -61 -46 -71 -33 -6 -45 -3 -63 14 -12
12 -26 21 -32 21 -19 0 -244 -103 -244 -112 0 -24 38 -72 72 -89 58 -30 117
-25 200 17 154 77 303 177 325 217 33 60 -10 159 -93 214 -37 24 -89 18 -150
-17 -89 -50 -171 -57 -196 -17 -15 23 -8 64 15 85 29 28 54 28 83 1 27 -25 41
-19 103 45 l44 45 -73 111 c-40 61 -90 126 -111 145 -43 39 -164 102 -255 133
-135 46 -395 101 -557 118 -62 6 -64 7 -77 43 -7 20 -44 108 -81 196 -91 212
-105 295 -63 362 30 48 80 19 139 -81 37 -64 101 -131 237 -249 57 -48 70 -66
84 -112 10 -31 21 -52 25 -48 11 12 29 155 29 231 l0 66 30 -34 c39 -46 78
-125 89 -180 10 -54 11 -51 50 117 48 205 38 306 -40 410 -32 43 -55 60 -118
90 l-79 38 -4 47 c-4 32 -16 61 -41 96 l-36 50 20 73 c34 132 22 221 -39 312
-21 31 -31 59 -36 106 -7 78 -35 139 -88 194 -28 30 -35 43 -26 49 7 4 17 8
22 8 5 0 41 16 79 36 275 140 410 343 377 571 -10 75 -53 145 -149 242 -153
155 -371 257 -624 290 -216 29 -561 4 -807 -59 -63 -16 -115 -28 -116 -27 0 1
41 119 92 262 181 504 169 466 150 448z m598 -898 c111 -20 203 -57 274 -111
64 -50 129 -125 138 -160 9 -37 -18 -70 -63 -78 -21 -3 -53 -9 -70 -12 -26 -5
-33 -3 -33 10 0 20 -24 21 -54 1 -24 -16 -76 -12 -76 6 0 12 -27 11 -67 -3
-30 -11 -35 -10 -73 21 l-41 33 -36 -25 -36 -26 -44 26 -43 25 -34 -26 c-33
-25 -35 -25 -74 -10 -38 16 -40 15 -82 -11 l-43 -27 -44 21 -45 22 -51 -30
-52 -29 -33 28 c-32 27 -35 27 -77 15 -39 -12 -45 -12 -61 6 -20 22 -44 25
-44 5 0 -24 63 -57 97 -50 24 5 40 -1 72 -24 l42 -31 46 25 c36 19 54 23 87
18 22 -4 48 -13 57 -20 20 -18 29 -18 29 1 0 15 49 45 74 45 9 0 31 -8 50 -17
33 -15 37 -15 54 0 25 23 84 22 113 -2 23 -19 24 -19 48 0 31 25 76 24 108 -1
30 -24 51 -25 77 -5 29 22 56 19 56 -5 0 -23 15 -25 50 -5 30 17 70 19 70 4 0
-11 35 -8 71 6 9 3 24 -1 33 -10 20 -20 12 -60 -17 -93 -28 -30 -145 -88 -196
-97 -42 -7 -51 -18 -27 -32 7 -4 19 -18 25 -31 10 -20 10 -27 -3 -41 -19 -21
-20 -44 -4 -71 19 -29 0 -72 -37 -82 -63 -19 -335 -21 -465 -4 -127 17 -251
53 -279 81 -15 15 -14 18 9 35 l25 20 -32 26 c-18 14 -33 30 -33 35 0 6 23 20
52 33 28 12 47 25 42 28 -5 3 -57 22 -117 42 -130 43 -247 96 -276 125 -29 29
-27 65 5 88 24 17 25 22 13 40 -24 39 1 68 96 113 88 42 289 121 405 159 123
40 302 51 444 26z m-717 -900 c292 -57 544 -79 835 -73 l227 5 29 -31 c43 -45
61 -87 71 -164 5 -37 19 -94 31 -127 26 -73 36 -195 21 -251 -6 -23 -21 -56
-34 -75 l-23 -34 32 -27 c41 -36 64 -85 64 -136 0 -45 10 -52 68 -52 76 0 185
-114 218 -228 16 -53 15 -175 -1 -191 -3 -3 -31 22 -61 56 -51 58 -150 140
-159 131 -2 -2 5 -30 16 -63 31 -94 33 -126 9 -155 l-20 -25 -63 66 c-34 37
-83 83 -109 104 -30 23 -57 57 -74 91 -34 70 -78 108 -115 100 -19 -4 -38 2
-65 20 -29 20 -39 23 -46 12 -21 -33 -41 -121 -45 -204 -7 -118 8 -168 103
-357 l75 -148 -4 -172 -3 -172 -782 -2 c-430 -2 -782 1 -782 5 0 11 183 171
296 259 244 189 380 327 434 438 18 37 24 71 28 146 l5 97 -206 4 c-190 3
-208 5 -234 24 -36 27 -56 85 -44 129 8 31 7 33 -22 39 -53 11 -77 33 -77 71
0 18 7 41 17 50 15 16 15 19 0 45 -25 41 -21 68 14 102 26 26 29 35 22 62 -4
17 -8 34 -8 38 0 3 40 38 89 77 l89 72 -3 62 c-8 139 2 197 42 242 l30 35 -22
37 -22 37 29 23 c33 27 30 27 130 8z m-1127 -2251 c49 -42 39 -62 -59 -111
-47 -24 -86 -41 -89 -39 -6 7 70 150 87 163 22 17 25 16 61 -13z m200 -70 c58
-23 54 -50 -22 -165 l-63 -94 -3 124 c-3 157 4 169 88 135z m560 -333 c0 -5 3
-23 6 -40 l7 -31 -46 0 -45 0 10 38 c14 52 26 64 49 51 10 -5 19 -13 19 -18z"/>
<path d="M8443 4128 c-34 -79 -137 -309 -228 -513 -92 -203 -241 -536 -332
-740 -371 -832 -397 -884 -483 -978 -48 -53 -124 -98 -187 -112 -28 -6 -33
-11 -33 -36 l0 -29 415 0 415 0 0 29 c0 28 0 28 -87 40 -128 16 -157 27 -196
71 -78 85 -62 192 73 486 l39 84 439 0 439 0 77 -177 c101 -232 131 -321 122
-366 -13 -70 -94 -107 -231 -107 l-65 0 0 -30 0 -30 605 0 605 0 0 29 c0 25
-4 30 -37 36 -61 11 -115 39 -155 80 -75 78 -94 118 -658 1405 -447 1020 -436
995 -456 998 -16 2 -30 -24 -81 -140z m42 -1161 c92 -213 165 -390 163 -393
-3 -2 -171 -3 -375 -2 l-370 3 163 365 c90 201 175 392 189 425 l27 60 17 -35
c10 -19 94 -210 186 -423z"/>
<path d="M11234 4260 c-357 -38 -681 -207 -901 -472 -89 -106 -120 -153 -172
-256 -93 -185 -133 -363 -133 -592 -1 -217 38 -393 122 -560 174 -346 549
-612 965 -686 152 -27 511 -25 703 5 208 32 385 80 595 161 l57 23 0 316 c0
333 4 373 45 427 31 41 77 61 169 76 74 11 76 12 76 40 l0 28 -605 0 -605 0 0
-29 0 -28 79 -5 c94 -5 178 -41 213 -91 23 -32 23 -36 26 -384 l3 -352 -71
-21 c-221 -66 -400 -67 -593 -3 -256 85 -411 297 -481 658 -57 292 -47 678 24
967 69 280 208 477 405 573 97 48 172 66 300 72 131 6 235 -10 351 -57 255
-102 454 -312 567 -597 31 -80 33 -83 65 -83 l32 0 0 440 0 440 -34 0 c-29 0
-36 -4 -45 -32 -26 -74 -99 -138 -158 -138 -17 0 -119 29 -226 65 -107 35
-235 72 -283 80 -107 19 -377 27 -490 15z"/>
<path d="M16140 4259 c-160 -23 -311 -99 -425 -213 -130 -131 -192 -267 -202
-443 -12 -212 55 -383 211 -539 116 -116 211 -176 566 -358 296 -153 355 -191
437 -281 81 -87 107 -154 101 -262 -16 -345 -479 -469 -845 -226 -91 60 -179
148 -242 243 -77 115 -112 201 -167 408 -2 6 -17 12 -34 12 l-30 0 0 -465 0
-465 29 0 c20 0 34 8 46 27 30 47 68 84 109 105 55 28 114 20 261 -36 204 -78
258 -89 435 -90 128 0 170 4 244 22 279 70 506 269 588 517 20 61 23 90 23
220 0 120 -4 161 -19 205 -89 261 -256 403 -793 674 -269 136 -357 191 -431
269 -70 75 -96 133 -96 217 0 191 171 330 406 330 177 0 334 -73 483 -224 113
-115 172 -223 214 -389 l19 -72 37 -3 37 -3 -6 198 c-3 109 -9 296 -12 416
l-6 217 -29 0 c-21 0 -29 -5 -29 -18 0 -38 -33 -113 -58 -133 -37 -29 -96 -22
-202 25 -250 112 -425 144 -620 115z"/>
<path d="M3834 4205 c-11 -28 4 -41 64 -58 76 -21 110 -59 173 -192 25 -55
176 -422 334 -815 159 -393 356 -884 439 -1090 l151 -375 35 -3 35 -3 66 158
c259 624 615 1450 620 1440 11 -19 590 -1532 603 -1574 6 -19 15 -23 44 -23
l37 0 77 203 c42 111 131 345 197 520 67 174 175 460 242 635 67 174 152 400
191 502 114 302 189 482 219 527 36 52 73 79 133 95 41 11 46 15 46 40 l0 28
-325 0 -325 0 0 -29 c0 -28 2 -29 63 -35 137 -15 196 -79 183 -199 -8 -78 -25
-133 -119 -382 -113 -301 -377 -988 -380 -991 -1 -2 -12 23 -24 54 -12 31
-115 298 -228 592 -304 788 -310 806 -263 865 29 37 74 54 163 62 74 6 75 6
75 34 l0 29 -600 0 -600 0 0 -30 c0 -28 2 -30 38 -30 21 0 62 -7 91 -16 111
-32 165 -119 310 -495 l72 -187 -161 -388 c-89 -214 -175 -423 -192 -464 -17
-41 -34 -78 -37 -82 -3 -4 -52 106 -108 245 -56 139 -174 430 -261 647 -88
217 -172 432 -186 478 -55 174 -22 241 127 258 54 6 57 8 57 35 l0 29 -535 0
c-467 0 -536 -2 -541 -15z"/>
<path d="M12880 4191 l0 -29 93 -4 c98 -5 139 -19 190 -67 66 -61 62 12 65
-1050 1 -542 -1 -1001 -7 -1048 -16 -151 -78 -204 -248 -211 l-93 -4 0 -29 0
-29 1075 0 1075 0 5 23 c6 29 105 738 105 755 0 9 -11 12 -32 10 -29 -3 -33
-8 -54 -71 -78 -231 -214 -397 -399 -487 -131 -64 -219 -81 -450 -87 -136 -4
-214 -2 -243 6 -55 15 -109 63 -122 109 -6 23 -10 213 -10 490 l0 452 48 0
c60 0 171 -24 219 -47 57 -26 127 -105 168 -188 32 -66 74 -214 90 -317 6 -35
8 -38 40 -38 l35 0 0 660 0 660 -35 0 c-32 0 -35 -3 -40 -37 -38 -235 -83
-352 -169 -439 -77 -77 -143 -104 -271 -111 l-90 -5 3 512 2 513 278 -6 c245
-4 286 -7 352 -27 221 -64 337 -189 406 -440 14 -52 27 -101 29 -107 3 -7 18
-13 35 -13 l30 0 0 365 0 365 -1040 0 -1040 0 0 -29z"/>
<path d="M7551 1369 c-38 -98 -115 -267 -128 -281 -15 -17 -13 -18 33 -17 39
0 45 2 27 9 -26 10 -28 27 -11 65 10 22 17 25 63 25 46 0 53 -3 63 -25 17 -37
15 -63 -5 -68 -10 -3 15 -5 56 -6 62 -1 72 1 58 12 -9 6 -44 77 -77 156 -33
80 -63 147 -65 149 -2 3 -9 -6 -14 -19z m15 -144 l14 -35 -44 0 -45 0 21 51
c23 54 24 54 54 -16z"/>
<path d="M8530 1375 c-10 -12 -10 -18 0 -30 7 -8 18 -15 25 -15 7 0 18 7 25
15 10 12 10 18 0 30 -7 8 -18 15 -25 15 -7 0 -18 -7 -25 -15z"/>
<path d="M9030 1375 c-10 -12 -10 -18 0 -30 7 -8 18 -15 25 -15 7 0 18 7 25
15 10 12 10 18 0 30 -7 8 -18 15 -25 15 -7 0 -18 -7 -25 -15z"/>
<path d="M9945 1368 c-18 -16 -27 -34 -28 -60 -1 -23 -7 -38 -14 -38 -7 0 -13
-4 -13 -10 0 -5 7 -10 15 -10 24 0 22 -155 -2 -169 -14 -8 -4 -10 40 -11 53 0
57 1 43 16 -22 22 -23 164 -1 164 8 0 15 5 15 10 0 6 -7 10 -16 10 -12 0 -14
10 -12 47 3 48 22 69 31 33 6 -24 35 -27 44 -4 8 20 -21 44 -53 44 -13 0 -35
-10 -49 -22z"/>
<path d="M10660 1368 c-108 -55 -121 -201 -24 -274 33 -25 46 -29 103 -28 36
0 78 6 94 12 24 10 27 17 27 56 0 32 5 48 18 55 12 8 -2 10 -58 10 -56 0 -69
-3 -52 -10 20 -8 23 -15 20 -56 -3 -47 -4 -48 -39 -51 -27 -2 -44 3 -65 21
-23 20 -28 34 -32 85 -6 81 4 129 33 158 42 42 128 24 159 -34 15 -27 15 -26
15 28 1 36 -2 50 -8 41 -7 -11 -17 -12 -54 -2 -65 16 -87 14 -137 -11z"/>
<path d="M11160 1375 c-10 -12 -10 -18 0 -30 7 -8 18 -15 25 -15 7 0 18 7 25
15 10 12 10 18 0 30 -7 8 -18 15 -25 15 -7 0 -18 -7 -25 -15z"/>
<path d="M14200 1375 c-10 -12 -10 -18 0 -30 7 -8 18 -15 25 -15 7 0 18 7 25
15 10 12 10 18 0 30 -7 8 -18 15 -25 15 -7 0 -18 -7 -25 -15z"/>
<path d="M15492 1365 c-25 -21 -32 -34 -32 -63 0 -49 6 -56 81 -105 66 -43 83
-73 59 -103 -14 -16 -63 -19 -91 -4 -10 6 -28 27 -38 48 l-20 37 -1 -54 c0
-44 3 -52 15 -47 9 3 35 0 59 -6 54 -14 100 2 121 43 33 62 13 101 -75 153
-63 37 -80 58 -64 84 24 38 104 19 124 -31 7 -18 9 -15 9 18 1 35 -2 40 -21
41 -13 1 -39 5 -59 9 -29 6 -40 3 -67 -20z"/>
<path d="M16140 1375 c-10 -12 -10 -18 0 -30 7 -8 18 -15 25 -15 7 0 18 7 25
15 10 12 10 18 0 30 -7 8 -18 15 -25 15 -7 0 -18 -7 -25 -15z"/>
<path d="M5039 1348 c10 -18 40 -91 66 -161 27 -70 51 -124 55 -120 4 4 22 46
40 93 18 47 36 89 40 93 4 5 20 -29 35 -75 46 -139 41 -140 101 26 29 81 58
154 65 162 10 12 5 14 -27 14 -34 0 -36 -1 -20 -13 18 -13 18 -17 -8 -95 -15
-45 -31 -84 -35 -87 -5 -2 -22 36 -39 85 -28 82 -29 91 -14 100 12 7 -5 9 -58
9 -41 -1 -67 -3 -57 -6 20 -5 47 -52 47 -82 0 -21 -28 -100 -40 -114 -8 -9
-70 145 -70 173 0 10 6 21 13 23 6 3 -16 6 -50 6 l-62 1 18 -32z"/>
<path d="M7197 1372 c6 -4 12 -30 14 -57 2 -39 -1 -49 -12 -46 -47 13 -58 11
-85 -12 -26 -23 -29 -31 -29 -87 0 -55 3 -64 28 -86 32 -27 59 -31 77 -9 10
13 9 15 -8 15 -28 0 -42 29 -42 87 0 60 20 93 47 77 15 -9 18 -26 19 -98 1
-47 3 -88 5 -91 3 -2 24 1 48 7 34 9 40 13 27 20 -13 8 -16 31 -16 148 l0 140
-42 0 c-24 0 -38 -4 -31 -8z"/>
<path d="M11628 1373 c9 -3 12 -45 12 -159 0 -85 4 -154 8 -154 4 0 13 5 19
11 8 8 21 8 47 -2 27 -10 41 -10 61 -1 68 31 85 142 29 190 -26 23 -45 25 -87
7 -13 -5 -18 -4 -17 6 1 8 2 35 1 62 l-1 47 -42 -1 c-24 0 -37 -3 -30 -6z
m146 -170 c17 -83 -24 -157 -61 -107 -17 23 -17 126 -1 142 25 25 52 10 62
-35z"/>
<path d="M12258 1373 c9 -3 12 -43 12 -148 0 -105 -3 -145 -12 -148 -7 -3 12
-5 42 -5 30 0 49 2 43 5 -9 3 -13 28 -13 77 0 71 10 96 37 96 18 0 19 -166 1
-173 -7 -3 11 -6 40 -6 49 -1 52 0 42 18 -5 11 -10 51 -10 89 0 54 -4 72 -18
85 -23 21 -41 21 -70 1 l-22 -15 0 65 0 66 -42 -1 c-24 0 -37 -3 -30 -6z"/>
<path d="M12618 1370 c21 -9 22 -14 22 -145 0 -131 -1 -136 -22 -145 -16 -6
20 -8 107 -7 l130 2 3 35 3 35 -20 -25 c-16 -20 -28 -24 -73 -25 l-53 0 -3 63
c-3 61 -2 63 20 60 12 -2 28 -14 35 -28 12 -23 13 -19 13 40 0 59 -1 63 -13
40 -7 -14 -23 -26 -35 -28 -21 -3 -22 0 -22 57 l0 61 43 0 c50 0 59 -5 80 -45
l16 -30 1 48 0 47 -127 -1 c-87 0 -121 -3 -105 -9z"/>
<path d="M15203 1373 c13 -4 17 -15 17 -58 l0 -53 -29 11 c-59 22 -107 -38
-98 -123 8 -69 74 -115 108 -74 11 13 14 13 21 1 6 -12 15 -13 49 -4 32 8 38
12 25 19 -13 8 -16 31 -16 148 l0 140 -47 -1 c-27 -1 -40 -3 -30 -6z m5 -125
c7 -7 12 -40 12 -79 0 -61 -2 -68 -22 -75 -30 -9 -48 19 -48 79 0 74 26 107
58 75z"/>
<path d="M16473 1369 c15 -9 17 -27 17 -144 0 -117 -2 -135 -17 -144 -14 -8
-4 -10 42 -10 46 0 56 2 43 10 -16 9 -18 27 -18 154 l0 145 -42 0 c-34 -1 -39
-3 -25 -11z"/>
<path d="M8886 1294 c-27 -31 -34 -44 -23 -44 13 0 17 -15 19 -87 3 -86 4 -88
31 -97 23 -8 31 -6 49 12 l21 21 -20 -5 c-20 -6 -22 -2 -25 75 -3 78 -2 81 20
81 12 0 22 5 22 10 0 6 -9 10 -20 10 -20 0 -24 8 -20 48 2 31 -10 26 -54 -24z"/>
<path d="M12126 1294 c-27 -31 -34 -44 -23 -44 13 0 17 -15 19 -87 3 -86 4
-88 31 -97 23 -8 31 -6 49 12 l21 21 -21 -6 c-21 -5 -22 -3 -22 76 0 74 2 81
20 81 11 0 20 5 20 10 0 6 -9 10 -20 10 -16 0 -20 7 -20 35 0 19 -3 35 -7 34
-5 0 -25 -21 -47 -45z"/>
<path d="M5503 1270 c-12 -5 -29 -22 -37 -39 -56 -107 46 -219 132 -146 37 31
48 81 28 128 -24 58 -69 79 -123 57z m67 -36 c23 -60 5 -154 -29 -154 -25 0
-31 19 -31 90 0 32 3 65 6 74 10 25 43 19 54 -10z"/>
<path d="M5772 1264 c-12 -8 -22 -10 -22 -5 0 6 -19 11 -42 10 -24 0 -37 -3
-30 -6 8 -3 12 -32 12 -93 0 -61 -4 -90 -12 -93 -7 -3 12 -5 42 -5 30 0 49 2
43 5 -19 7 -17 147 2 163 8 7 22 10 30 6 20 -7 22 -161 3 -169 -7 -3 12 -5 42
-5 30 0 49 2 43 5 -19 7 -17 147 2 163 8 7 22 10 30 6 20 -7 22 -161 3 -169
-7 -3 12 -5 42 -5 30 0 49 2 43 5 -9 3 -13 30 -13 84 0 66 -3 82 -20 99 -24
24 -32 25 -71 5 -27 -14 -32 -14 -51 0 -28 19 -48 19 -76 -1z"/>
<path d="M6103 1270 c-30 -12 -53 -60 -53 -110 0 -33 6 -48 29 -71 16 -16 39
-29 51 -29 28 0 80 27 80 42 0 9 -3 9 -12 0 -16 -16 -53 -15 -67 2 -7 8 -16
28 -21 45 l-9 31 61 0 60 0 -6 28 c-8 32 -50 72 -74 71 -9 0 -27 -4 -39 -9z
m57 -29 c17 -32 12 -41 -25 -41 -39 0 -39 -1 -25 34 11 31 35 34 50 7z"/>
<path d="M6342 1264 c-12 -8 -22 -10 -22 -5 0 6 -19 11 -42 10 -24 0 -37 -3
-30 -6 8 -3 12 -32 12 -93 0 -61 -4 -90 -12 -93 -7 -3 12 -5 42 -5 30 0 49 2
43 5 -9 3 -13 28 -13 77 0 71 10 96 37 96 18 0 19 -166 1 -173 -7 -3 12 -6 42
-6 42 -1 51 2 42 11 -7 7 -12 43 -12 89 0 103 -30 134 -88 93z"/>
<path d="M6657 1269 c-29 -12 -47 -53 -29 -71 19 -19 43 -1 40 29 -3 24 1 28
22 28 21 0 26 -5 28 -31 3 -27 -1 -33 -38 -49 -68 -31 -92 -85 -46 -106 18 -8
30 -7 53 4 27 14 31 14 46 0 14 -14 20 -15 44 -3 16 7 23 15 16 17 -9 3 -13
28 -13 77 0 42 -5 79 -13 89 -15 22 -73 30 -110 16z m54 -172 c-14 -14 -41 -1
-41 20 0 9 10 28 23 41 l22 24 3 -37 c2 -21 -1 -42 -7 -48z"/>
<path d="M6938 1269 c-24 -14 -23 -28 2 -22 19 5 20 0 20 -80 0 -59 -4 -87
-12 -90 -7 -3 12 -6 42 -6 42 -1 51 2 42 11 -7 7 -12 42 -12 88 0 62 -4 80
-18 93 -21 19 -39 21 -64 6z"/>
<path d="M7760 1260 c-33 -33 -25 -63 27 -107 33 -28 45 -45 40 -56 -10 -25
-43 -20 -66 9 l-21 27 0 -30 c0 -28 4 -31 41 -37 30 -5 48 -2 66 9 51 33 43
77 -22 123 -48 34 -54 55 -17 60 13 2 26 -5 34 -17 18 -29 25 -26 20 7 -3 24
-8 27 -43 29 -28 2 -45 -3 -59 -17z"/>
<path d="M7930 1260 c-33 -33 -25 -63 27 -107 33 -28 45 -45 40 -56 -10 -25
-43 -20 -66 9 l-21 27 0 -34 0 -34 49 0 c81 0 121 61 69 105 -13 11 -36 30
-52 43 -17 14 -26 29 -22 35 12 19 44 14 60 -10 l16 -22 0 29 c0 28 -3 30 -40
32 -29 2 -46 -3 -60 -17z"/>
<path d="M8143 1270 c-12 -5 -29 -22 -37 -39 -56 -107 46 -219 132 -146 37 31
48 81 28 128 -24 58 -69 79 -123 57z m67 -36 c23 -60 5 -154 -29 -154 -10 0
-22 7 -25 16 -11 28 -6 140 6 152 19 19 38 14 48 -14z"/>
<path d="M8361 1266 c-33 -18 -50 -53 -51 -104 0 -35 6 -49 29 -73 16 -16 39
-29 51 -29 27 0 80 27 80 41 0 8 -5 7 -15 -1 -23 -19 -61 -4 -75 30 -13 31
-16 102 -5 120 11 18 31 11 43 -15 13 -28 40 -33 49 -8 8 20 -30 53 -61 53
-11 -1 -32 -7 -45 -14z"/>
<path d="M8695 1270 c-46 -18 -61 -75 -20 -75 16 0 20 7 20 30 0 25 4 30 25
30 21 0 26 -5 28 -30 3 -27 -2 -33 -43 -53 -47 -23 -72 -59 -62 -87 10 -25 36
-29 72 -12 29 14 34 14 48 -1 14 -13 20 -14 44 -2 16 7 23 15 16 17 -9 3 -13
28 -13 76 0 78 -4 88 -37 106 -25 13 -49 13 -78 1z m46 -173 c-14 -14 -41 -1
-41 20 0 9 10 28 23 41 l22 24 3 -37 c2 -21 -1 -42 -7 -48z"/>
<path d="M9183 1270 c-12 -5 -29 -22 -37 -39 -56 -107 46 -219 132 -146 37 31
48 81 28 128 -24 58 -69 79 -123 57z m67 -36 c23 -60 5 -154 -29 -154 -25 0
-31 19 -31 90 0 32 3 65 6 74 10 25 43 19 54 -10z"/>
<path d="M9468 1269 c-24 -14 -23 -28 2 -22 19 5 20 0 20 -80 0 -59 -4 -87
-12 -90 -7 -3 12 -6 42 -6 42 -1 51 2 42 11 -7 7 -12 43 -12 89 0 99 -27 131
-82 98z"/>
<path d="M9630 1260 c-33 -33 -25 -63 27 -107 33 -28 45 -45 40 -56 -10 -25
-43 -20 -66 9 l-21 27 0 -34 0 -34 49 0 c56 0 91 24 91 62 0 23 -15 40 -79 91
-14 11 -21 24 -17 30 12 19 44 14 60 -10 l16 -22 0 29 c0 28 -3 30 -40 32 -29
2 -46 -3 -60 -17z"/>
<path d="M10093 1270 c-50 -20 -68 -110 -33 -167 57 -95 194 -11 161 98 -19
64 -71 92 -128 69z m67 -29 c13 -25 13 -102 0 -136 -7 -20 -16 -26 -33 -23
-20 3 -22 9 -25 68 -2 35 0 75 3 87 7 28 40 31 55 4z"/>
<path d="M10383 1265 c-22 -16 -33 -43 -13 -30 6 4 17 1 25 -5 21 -18 47 -4
43 22 -4 28 -26 33 -55 13z"/>
<path d="M10975 1270 c-46 -18 -61 -75 -20 -75 16 0 20 7 20 30 0 25 4 30 25
30 21 0 25 -5 28 -30 2 -27 -3 -33 -48 -57 -53 -30 -73 -66 -50 -93 15 -18 37
-19 70 0 22 12 27 11 43 -2 14 -14 21 -14 45 -3 15 7 22 15 15 17 -9 3 -13 28
-13 76 0 78 -4 88 -37 106 -25 13 -49 13 -78 1z m46 -173 c-14 -14 -41 -1 -41
20 0 9 10 28 23 41 l22 24 3 -37 c2 -21 -1 -42 -7 -48z"/>
<path d="M11378 1269 c-24 -14 -23 -28 2 -22 19 5 20 0 20 -80 0 -59 -4 -87
-12 -90 -7 -3 12 -6 42 -6 42 -1 51 2 42 11 -7 7 -12 42 -12 88 0 62 -4 80
-18 93 -21 19 -39 21 -64 6z"/>
<path d="M11933 1270 c-28 -12 -53 -60 -53 -102 0 -114 136 -147 176 -43 26
71 -6 139 -72 150 -16 2 -39 0 -51 -5z m67 -29 c13 -25 13 -102 0 -136 -7 -20
-16 -26 -33 -23 -20 3 -22 9 -25 68 -2 35 0 75 3 87 7 28 40 31 55 4z"/>
<path d="M12970 1273 c-37 -15 -60 -58 -60 -113 0 -33 6 -48 29 -71 16 -16 39
-29 51 -29 28 0 80 27 80 42 0 9 -3 9 -12 0 -16 -16 -53 -15 -66 1 -16 19 -29
88 -22 122 7 38 33 44 48 10 13 -28 39 -33 49 -8 13 33 -52 63 -97 46z"/>
<path d="M13163 1270 c-12 -5 -29 -22 -37 -39 -36 -68 -5 -155 57 -166 81 -15
138 66 103 148 -24 58 -69 79 -123 57z m68 -31 c14 -27 7 -135 -9 -151 -9 -9
-17 -10 -30 -2 -18 12 -29 105 -17 151 7 29 40 30 56 2z"/>
<path d="M13432 1264 c-12 -8 -22 -10 -22 -5 0 6 -19 11 -42 10 -24 0 -37 -3
-30 -6 16 -6 17 -164 0 -181 -9 -9 0 -12 43 -11 29 0 48 3 42 6 -9 3 -13 28
-13 77 0 71 10 96 37 96 18 0 19 -166 1 -173 -7 -3 12 -6 42 -6 42 -1 51 2 42
11 -7 7 -12 42 -12 88 0 62 -4 80 -18 93 -23 21 -41 21 -70 1z"/>
<path d="M13633 1270 c-12 -5 -29 -22 -37 -39 -56 -107 46 -219 132 -146 37
31 48 81 28 128 -24 58 -69 79 -123 57z m67 -29 c13 -25 13 -102 0 -135 -11
-29 -44 -35 -54 -10 -3 9 -6 42 -6 74 0 32 3 65 6 74 8 22 41 20 54 -3z"/>
<path d="M13902 1264 c-12 -8 -22 -10 -22 -5 0 6 -19 11 -42 10 -24 0 -37 -3
-30 -6 17 -7 17 -179 0 -186 -7 -3 12 -5 42 -5 30 0 49 2 43 5 -19 7 -17 147
2 163 8 7 22 10 30 6 20 -7 22 -161 3 -169 -7 -3 12 -5 42 -5 30 0 49 2 43 5
-19 7 -17 147 2 163 8 7 22 10 30 6 20 -7 22 -161 3 -169 -7 -3 12 -5 42 -5
30 0 49 2 43 5 -9 3 -13 30 -13 84 0 66 -3 82 -20 99 -25 25 -51 25 -80 2 -23
-18 -24 -18 -42 0 -22 22 -46 23 -76 2z"/>
<path d="M14351 1266 c-33 -18 -50 -53 -51 -104 0 -35 6 -49 29 -73 16 -16 39
-29 51 -29 28 0 80 27 80 42 0 9 -3 9 -12 0 -16 -16 -53 -15 -66 1 -5 6 -14
28 -20 49 -20 73 19 143 46 83 13 -28 39 -33 49 -8 8 20 -30 53 -61 53 -11 -1
-32 -7 -45 -14z"/>
<path d="M14657 1269 c-29 -12 -47 -53 -29 -71 19 -19 43 -1 40 29 -3 24 1 28
22 28 21 0 26 -5 28 -31 3 -27 -1 -33 -38 -49 -68 -31 -92 -85 -46 -106 18 -8
30 -7 53 4 27 14 31 14 46 0 14 -14 20 -15 44 -3 16 7 23 15 16 17 -9 3 -13
28 -13 77 0 42 -5 79 -13 89 -15 22 -73 30 -110 16z m54 -172 c-14 -14 -41 -1
-41 20 0 9 10 28 23 41 l22 24 3 -37 c2 -21 -1 -42 -7 -48z"/>
<path d="M14942 1264 c-12 -8 -22 -10 -22 -5 0 6 -19 11 -42 10 -24 0 -37 -3
-30 -6 16 -6 17 -164 0 -181 -9 -9 0 -12 43 -11 29 0 48 3 42 6 -9 3 -13 28
-13 77 0 71 10 96 37 96 18 0 19 -166 1 -173 -7 -3 12 -6 42 -6 42 -1 51 2 42
11 -7 7 -12 43 -12 89 0 103 -30 134 -88 93z"/>
<path d="M15750 1267 c-78 -39 -60 -187 25 -203 70 -13 128 62 106 137 -20 66
-76 94 -131 66z m70 -26 c14 -28 12 -124 -3 -145 -7 -10 -22 -17 -33 -14 -16
3 -19 13 -22 68 -2 35 0 75 3 87 7 28 40 31 55 4z"/>
<path d="M15968 1263 c-56 -35 -66 -122 -19 -172 16 -17 39 -31 51 -31 28 0
80 27 80 42 0 9 -3 9 -12 0 -34 -34 -74 -3 -91 68 -15 63 32 121 53 66 11 -29
37 -34 47 -9 8 20 -30 53 -61 53 -11 0 -33 -8 -48 -17z"/>
<path d="M16295 1270 c-46 -18 -61 -75 -20 -75 16 0 20 7 20 30 0 25 4 30 25
30 21 0 25 -5 28 -30 2 -27 -3 -33 -48 -57 -53 -30 -73 -66 -50 -93 15 -18 37
-19 70 0 22 12 27 11 43 -2 14 -14 21 -14 45 -3 15 7 22 15 15 17 -9 3 -13 28
-13 76 0 78 -4 88 -37 106 -25 13 -49 13 -78 1z m46 -173 c-14 -14 -41 -1 -41
20 0 9 10 28 23 41 l22 24 3 -37 c2 -21 -1 -42 -7 -48z"/>
<path d="M6838 1263 c16 -6 17 -164 0 -181 -9 -9 0 -12 43 -12 33 0 49 4 41 9
-9 6 -13 30 -12 82 2 117 5 109 -42 108 -24 0 -37 -3 -30 -6z"/>
<path d="M8513 1259 c14 -8 17 -24 17 -89 0 -65 -3 -81 -17 -89 -14 -8 -4 -10
40 -11 53 0 57 1 43 16 -12 12 -16 36 -16 100 l0 84 -42 0 c-34 -1 -39 -3 -25
-11z"/>
<path d="M9014 1254 c23 -23 21 -160 -3 -174 -11 -7 1 -9 44 -9 46 0 56 2 43
10 -15 8 -18 25 -18 99 l0 90 -41 0 c-37 0 -39 -1 -25 -16z"/>
<path d="M9368 1263 c8 -3 12 -32 12 -93 0 -61 -4 -90 -12 -93 -7 -3 12 -6 42
-6 33 0 50 3 42 8 -9 6 -13 30 -12 82 2 117 5 109 -42 108 -24 0 -37 -3 -30
-6z"/>
<path d="M10278 1263 c8 -3 12 -32 12 -93 0 -61 -4 -90 -12 -93 -7 -3 14 -6
47 -6 47 0 56 2 42 10 -16 9 -18 22 -17 77 4 117 6 112 -42 111 -24 0 -37 -3
-30 -6z"/>
<path d="M11143 1259 c14 -8 17 -24 17 -89 0 -65 -3 -81 -17 -89 -14 -8 -4
-10 42 -10 46 0 56 2 43 10 -15 8 -18 25 -18 99 l0 90 -42 0 c-34 -1 -39 -3
-25 -11z"/>
<path d="M11278 1258 c7 -7 12 -42 12 -88 0 -46 -5 -81 -12 -88 -9 -9 0 -12
43 -12 33 0 49 4 41 9 -9 6 -13 30 -12 82 2 117 5 109 -42 109 -33 0 -39 -3
-30 -12z"/>
<path d="M14183 1259 c14 -8 17 -24 17 -89 0 -65 -3 -81 -17 -89 -14 -8 -4
-10 42 -10 46 0 56 2 43 10 -15 8 -18 25 -18 99 l0 90 -42 0 c-34 -1 -39 -3
-25 -11z"/>
<path d="M16123 1259 c14 -8 17 -24 17 -89 0 -65 -3 -81 -17 -89 -14 -8 -4
-10 42 -10 46 0 56 2 43 10 -15 8 -18 25 -18 99 l0 90 -42 0 c-34 -1 -39 -3
-25 -11z"/>
<path d="M5515 591 c-97 -44 -111 -159 -29 -231 19 -16 63 -44 97 -61 83 -42
107 -65 107 -105 0 -62 -81 -95 -148 -60 -39 20 -68 54 -91 106 l-20 45 0 -99
c-1 -95 0 -98 17 -83 23 21 35 21 92 1 113 -40 230 28 232 134 1 76 -42 121
-179 191 -84 42 -106 88 -63 131 55 55 176 -2 196 -93 11 -51 21 -5 16 76 -3
59 -6 66 -17 51 -12 -17 -15 -17 -65 -1 -66 21 -95 21 -145 -2z"/>
<path d="M8645 601 c-158 -39 -232 -228 -149 -381 35 -64 91 -106 162 -121
106 -22 202 7 264 81 43 49 60 104 59 186 -1 170 -157 278 -336 235z m135 -36
c16 -9 37 -29 45 -45 38 -74 35 -280 -5 -344 -25 -41 -68 -61 -116 -53 -45 7
-60 20 -87 71 -29 57 -31 228 -3 299 29 77 98 107 166 72z"/>
<path d="M12182 591 c-80 -27 -131 -78 -162 -159 -63 -165 37 -319 219 -338
95 -10 221 42 221 91 0 13 -7 11 -32 -11 -69 -57 -155 -71 -216 -34 -99 61
-110 317 -17 399 41 36 72 45 125 38 54 -7 99 -42 122 -94 10 -23 21 -43 23
-43 3 0 5 39 5 87 0 84 0 86 -19 69 -18 -17 -24 -17 -90 -2 -88 20 -113 20
-179 -3z"/>
<path d="M13264 600 c-156 -37 -230 -229 -148 -381 36 -65 89 -104 161 -120
181 -37 326 77 326 256 0 178 -154 290 -339 245z m131 -32 c61 -27 94 -156 75
-290 -17 -117 -65 -168 -148 -155 -75 12 -118 109 -110 252 8 160 83 239 183
193z"/>
<path d="M15178 560 c-14 -30 -60 -135 -103 -233 -55 -125 -87 -185 -107 -202
l-30 -25 84 1 c67 1 77 3 52 10 -41 12 -44 23 -27 82 l14 47 92 0 93 0 18 -50
c21 -57 17 -77 -16 -83 -13 -2 30 -5 95 -6 l117 -1 -29 28 c-21 19 -56 89
-117 232 -121 286 -107 266 -136 200z m22 -220 l29 -70 -75 0 -74 0 13 33 c56
131 60 139 69 122 5 -9 22 -47 38 -85z"/>
<path d="M16222 591 c-98 -34 -182 -147 -182 -245 0 -95 56 -187 137 -227 67
-32 190 -33 248 -1 57 31 75 47 75 66 0 15 -6 13 -32 -10 -102 -85 -223 -70
-271 34 -28 60 -30 215 -4 273 19 42 67 86 103 95 74 19 154 -22 186 -93 10
-23 21 -43 23 -43 3 0 5 39 5 87 0 84 0 86 -19 69 -18 -17 -24 -17 -90 -2 -88
20 -113 20 -179 -3z"/>
<path d="M4596 589 c20 -6 34 -17 38 -31 8 -30 8 -367 0 -407 -5 -24 -14 -33
-38 -40 -22 -7 5 -9 99 -9 94 0 121 2 99 9 -20 6 -34 17 -38 31 -3 13 -6 106
-6 208 0 102 3 195 6 208 4 14 18 25 38 31 22 7 -5 9 -99 9 -94 0 -121 -2 -99
-9z"/>
<path d="M4880 589 c54 -21 58 -39 60 -229 1 -202 -6 -235 -53 -249 -25 -7
-11 -9 63 -9 75 0 88 2 63 9 -18 5 -37 18 -43 29 -6 12 -9 85 -8 191 l3 172
165 -206 c91 -113 168 -206 173 -207 4 0 7 105 7 233 0 127 4 237 8 242 4 6
18 16 32 22 21 10 12 12 -60 11 -47 0 -75 -3 -64 -5 48 -9 55 -31 52 -169 l-3
-128 -120 152 -120 152 -90 -1 c-70 0 -84 -2 -65 -10z"/>
<path d="M5831 528 c0 -70 1 -71 13 -39 18 50 59 81 107 81 l39 0 0 -219 c0
-233 0 -235 -50 -244 -14 -2 36 -4 110 -4 74 0 124 2 110 4 -50 9 -50 11 -50
244 l0 219 38 0 c48 0 79 -22 102 -74 l19 -41 0 73 1 72 -220 0 -220 0 1 -72z"/>
<path d="M6356 589 c20 -6 34 -17 38 -31 8 -30 8 -367 0 -407 -5 -24 -14 -33
-38 -40 -22 -7 5 -9 99 -9 94 0 121 2 99 9 -20 6 -34 17 -38 31 -3 13 -6 106
-6 208 0 102 3 195 6 208 4 14 18 25 38 31 22 7 -5 9 -99 9 -94 0 -121 -2 -99
-9z"/>
<path d="M6631 528 c0 -70 1 -71 13 -39 18 50 59 81 107 81 l39 0 0 -219 c0
-233 0 -235 -50 -244 -14 -2 36 -4 110 -4 74 0 124 2 110 4 -50 9 -50 11 -50
244 l0 219 38 0 c48 0 79 -22 102 -74 l19 -41 0 73 1 72 -220 0 -220 0 1 -72z"/>
<path d="M7135 593 c43 -11 45 -19 45 -185 0 -184 10 -238 52 -273 60 -51 189
-57 254 -13 61 42 68 66 72 248 4 205 4 207 45 219 25 7 14 9 -58 9 -49 -1
-80 -3 -68 -5 46 -9 53 -36 53 -198 0 -82 -5 -167 -10 -187 -23 -82 -125 -117
-187 -64 l-28 24 -3 191 c-2 121 1 197 7 210 6 11 23 22 38 24 16 2 -30 4
-102 4 -71 1 -121 -2 -110 -4z"/>
<path d="M7671 528 c0 -70 1 -71 13 -39 18 50 59 81 107 81 l39 0 0 -219 c0
-233 0 -235 -50 -244 -14 -2 36 -4 110 -4 74 0 124 2 110 4 -50 9 -50 11 -50
244 l0 219 38 0 c48 0 79 -22 102 -74 l19 -41 0 73 1 72 -220 0 -220 0 1 -72z"/>
<path d="M8186 589 c20 -6 34 -17 38 -31 8 -30 8 -367 0 -407 -5 -24 -14 -33
-38 -40 -22 -7 5 -9 99 -9 94 0 121 2 99 9 -20 6 -34 17 -38 31 -3 13 -6 106
-6 208 0 102 3 195 6 208 4 14 18 25 38 31 22 7 -5 9 -99 9 -94 0 -121 -2 -99
-9z"/>
<path d="M9040 589 c54 -21 58 -39 60 -229 1 -202 -6 -235 -53 -249 -25 -7
-11 -9 63 -9 75 0 88 2 63 9 -18 5 -37 18 -43 29 -6 12 -9 85 -8 191 l3 172
165 -206 c91 -113 168 -206 173 -207 4 0 7 105 7 233 0 127 4 237 8 242 4 6
18 16 32 22 21 10 12 12 -60 11 -47 0 -75 -3 -64 -5 48 -9 55 -31 52 -169 l-3
-128 -120 152 -120 152 -90 -1 c-70 0 -84 -2 -65 -10z"/>
<path d="M9770 593 c50 -10 50 -12 50 -243 0 -231 0 -233 -50 -243 -14 -3 47
-4 135 -3 174 2 213 12 268 64 52 49 72 99 72 182 0 114 -38 176 -135 223 -40
19 -64 22 -205 23 -88 1 -149 0 -135 -3z m286 -54 c77 -72 85 -285 15 -369
-24 -29 -34 -34 -77 -34 l-49 -1 -3 219 -2 219 45 -6 c30 -3 55 -13 71 -28z"/>
<path d="M10326 589 c20 -6 34 -17 38 -31 3 -13 6 -106 6 -208 0 -200 -6 -229
-50 -241 -14 -4 70 -7 187 -8 116 -1 214 2 216 6 3 5 8 42 12 83 l7 75 -24
-44 c-33 -65 -65 -84 -145 -89 -87 -6 -93 2 -93 120 0 85 1 88 23 88 37 0 66
-28 81 -78 14 -46 15 -44 15 93 0 137 -1 139 -15 93 -15 -50 -44 -78 -81 -78
-22 0 -23 3 -23 101 l0 101 74 -4 c85 -4 107 -18 137 -83 l18 -40 0 78 1 77
-207 -1 c-143 -1 -198 -4 -177 -10z"/>
<path d="M11000 593 c50 -10 50 -12 50 -237 0 -116 -4 -217 -9 -224 -4 -7 -21
-17 -37 -22 -21 -6 -5 -8 61 -8 50 0 80 3 69 5 -51 10 -55 25 -52 238 l3 199
92 -215 c51 -117 96 -215 101 -217 5 -1 44 80 87 180 42 101 85 201 95 223
l18 40 1 -206 c1 -220 -2 -234 -49 -242 -14 -2 34 -4 105 -4 72 0 120 2 108 4
-45 9 -48 24 -48 243 0 219 3 234 48 243 12 3 -23 4 -77 3 l-100 -1 -65 -157
c-36 -86 -69 -159 -72 -163 -4 -3 -38 68 -76 157 l-70 163 -104 1 c-57 1 -93
0 -79 -3z"/>
<path d="M11717 593 c47 -9 53 -34 53 -229 0 -225 -3 -241 -44 -253 -22 -7 5
-9 99 -9 94 0 121 2 99 9 -20 6 -34 17 -38 31 -3 13 -6 106 -6 208 0 102 3
195 6 208 4 14 18 25 38 31 22 7 -5 9 -99 9 -71 -1 -120 -3 -108 -5z"/>
<path d="M12540 593 c50 -10 50 -12 50 -243 0 -232 0 -234 -50 -243 -14 -2 36
-4 110 -4 74 0 124 2 110 4 -46 9 -50 19 -50 124 0 134 11 132 115 -16 l79
-115 78 0 c45 0 78 4 78 10 0 6 -6 10 -14 10 -18 0 -63 51 -125 143 l-50 74
35 16 c67 33 92 112 54 174 -36 59 -64 67 -265 69 -99 1 -169 0 -155 -3z m273
-34 c31 -14 47 -48 47 -100 0 -59 -42 -99 -104 -99 l-46 0 0 105 0 105 40 0
c21 0 50 -5 63 -11z"/>
<path d="M13684 590 c16 -5 33 -15 37 -22 5 -7 9 -105 9 -218 0 -113 -4 -211
-9 -218 -4 -7 -21 -17 -37 -22 -20 -6 12 -8 101 -8 72 0 120 3 108 5 -41 8
-53 40 -53 140 l0 93 29 0 c40 0 82 -38 97 -86 11 -35 12 -23 12 101 1 133 0
138 -14 100 -18 -50 -56 -85 -95 -85 l-29 0 0 100 0 100 69 0 c86 0 130 -25
146 -85 15 -50 21 -36 20 45 l0 65 -210 2 c-134 1 -199 -2 -181 -7z"/>
<path d="M14146 589 c20 -6 34 -17 38 -31 3 -13 6 -109 6 -213 0 -205 -5 -229
-53 -238 -12 -2 37 -4 108 -5 94 0 121 2 99 9 -20 6 -34 17 -38 31 -3 13 -6
106 -6 208 0 102 3 195 6 208 4 14 18 25 38 31 22 7 -5 9 -99 9 -94 0 -121 -2
-99 -9z"/>
<path d="M14420 589 c55 -22 60 -39 60 -230 0 -202 -7 -235 -53 -248 -25 -7
-13 -9 58 -10 86 0 88 0 58 14 -19 8 -35 23 -38 37 -3 13 -4 97 -3 187 l3 165
165 -207 c91 -113 168 -206 173 -206 4 -1 7 104 7 232 0 249 1 252 50 270 8 3
-23 5 -70 5 -47 0 -75 -3 -64 -5 48 -9 55 -31 52 -168 l-3 -128 -120 151 -120
152 -90 -1 c-70 0 -84 -2 -65 -10z"/>
<path d="M15505 586 c17 -8 35 -22 41 -33 13 -21 12 -385 -1 -415 -4 -10 -21
-22 -39 -27 -24 -7 -11 -9 59 -9 50 1 80 3 67 5 -47 9 -53 36 -50 223 l3 173
165 -206 c91 -113 168 -206 173 -206 4 -1 7 104 7 232 0 249 1 252 50 270 8 3
-23 5 -70 5 -47 0 -75 -3 -64 -5 48 -9 55 -31 52 -169 l-3 -128 -120 152 -120
152 -90 0 c-84 -1 -88 -2 -60 -14z"/>
<path d="M16587 593 c47 -9 53 -34 53 -229 0 -225 -3 -241 -44 -253 -21 -6 36
-9 180 -10 167 -1 213 2 217 12 3 8 8 45 12 83 l7 69 -24 -44 c-35 -65 -66
-84 -145 -89 -87 -6 -93 2 -93 120 0 85 1 88 23 88 37 0 66 -28 81 -78 14 -46
15 -44 14 93 0 79 -3 127 -7 110 -16 -64 -45 -95 -90 -95 -20 0 -21 6 -21 101
l0 101 76 -4 c71 -3 78 -6 105 -36 16 -18 29 -41 29 -52 0 -10 5 -22 10 -25 6
-4 10 22 10 69 l0 76 -207 -1 c-115 -1 -198 -4 -186 -6z"/>
</g>
</svg>
